# xmcd CD database file
#
# Track frame offsets:
#	150
#	15293
#	29390
#	45515
#	59767
#	75438
#	90598
#	109189
#	128167
#	143695
#	156736
#	170607
#
# Disc length: 2476 seconds
#
# Revision: 4
# Processed by: cddbd v1.5.2PL0 Copyright (c) Steve Scherf et al.
# Submitted via: CDex 1.51
#
DISCID=9709aa0c
DTITLE=Stefanie Hertel - Liebe geht im Herzen los
DYEAR=2001
DGENRE=Vocal
TTITLE0=Heut steppt der Bär
TTITLE1=Tanz' doch einmal wieder Tango
TTITLE2=Das Leben ist zu kurz zum Traurigsein
TTITLE3=Liebe geht im Herzen los
TTITLE4=Wer sich traut, hat mehr vom Leben
TTITLE5=Arrivederci Manuel
TTITLE6=Wach' auf und fang mal an zu träumen
TTITLE7=Lust auf Sommer
TTITLE8=Die kleine Ewigkeit bis morgen
TTITLE9=Du tust,was liebe und liebst, was ich tu'
TTITLE10=Soweit die träume tragen
TTITLE11=Bitte lächeln
EXTD=YEAR: 2001
EXTT0=
EXTT1=
EXTT2=
EXTT3=
EXTT4=
EXTT5=
EXTT6=
EXTT7=
EXTT8=
EXTT9=
EXTT10=
EXTT11=
PLAYORDER=
